<svg id="Layer_6" data-name="Layer 6" xmlns="http://www.w3.org/2000/svg" xmlns:xlink="http://www.w3.org/1999/xlink" viewBox="0 0 535.97 433.83"><defs><style>.cls-1,.cls-2,.cls-3{stroke:#e07361;stroke-miterlimit:10;}.cls-1{fill:url(#radial-gradient);}.cls-2{fill:url(#radial-gradient-2);}.cls-3{fill:url(#radial-gradient-3);}.cls-4{fill:#222;}.cls-5{fill:#98b12b;}.cls-6{fill:#bdd04c;}.cls-7{fill:#a6bb47;}</style><radialGradient id="radial-gradient" cx="180.12" cy="381.7" r="165.88" gradientUnits="userSpaceOnUse"><stop offset="0" stop-color="#fff"/><stop offset="0.01" stop-color="#fefaec"/><stop offset="0.02" stop-color="#fbf1cd"/><stop offset="0.03" stop-color="#f9e9b1"/><stop offset="0.05" stop-color="#f8e39b"/><stop offset="0.06" stop-color="#f6de8a"/><stop offset="0.09" stop-color="#f6da7f"/><stop offset="0.12" stop-color="#f5d978"/><stop offset="0.2" stop-color="#f5d876"/><stop offset="1" stop-color="#d8250e"/></radialGradient><radialGradient id="radial-gradient-2" cx="71.38" cy="657.66" r="0" xlink:href="#radial-gradient"/><radialGradient id="radial-gradient-3" cx="170.48" cy="582.41" r="395.99" xlink:href="#radial-gradient"/></defs><title>mango_final</title><path class="cls-1" d="M185.36,246.69l-1.37.94c3.2-1.3,6.4-2.47,9.67-3.52l-4.44,0Z" transform="translate(-37.84 -232.57)"/><path class="cls-2" d="M71.38,657.66" transform="translate(-37.84 -232.57)"/><path class="cls-3" d="M364.12,616.06c9.56-10.65,17.6-21.77,28.91-30.75a183.79,183.79,0,0,1,21.84-14.66c15.65-16.49,25.21-38.49,33.15-59.48,8.16-21.61,14.57-43.8,21.11-65.94,2.06-43.19-10.14-84.57-25.7-124.44a7.39,7.39,0,0,1,1.44-8.17c-54.28-34.2-119.06-58.65-190-69.92a8.9,8.9,0,0,1-2.71,2.83c-20.68,13.42-47.46,11.86-69.39,23a263.52,263.52,0,0,0-65.15,47Q105.16,335,90.82,353.26c2.06,27.57-19,47.67-29.17,71.32C49.11,453.65,47.28,486,46.95,517.18c-0.08,7.69,0,15.41.12,23.16,4.17,0.49,7.89,3.44,7.66,8.88a48.35,48.35,0,0,0,2.73,19c10.26,28.19,42.79,45,68.68,55.84a343.3,343.3,0,0,0,94.22,24.34c35.88,3.89,71.3-5.14,107.14-5.62C340.83,635.45,353.75,627.61,364.12,616.06Z" transform="translate(-37.84 -232.57)"/><path class="cls-4" d="M363.48,276.54s-4.77-3-5.79-5.31c-0.51-1.14-.09-2.1,2.33-2.41a24.64,24.64,0,0,1,5.27.09,63.94,63.94,0,0,1,9.31,1.75c1,0.24,2,.49,3.08.78l3.32,1c2.32,0.73,4.88,1.49,7.61,2.55s5.73,2.14,8.9,3.58,6.58,3,10.23,4.87c1.81,1,3.66,2,5.58,3.07s3.86,2.32,5.89,3.55,4,2.68,6.17,4.1l3.16,2.31c1.07,0.79,2.16,1.59,3.22,2.47A130.75,130.75,0,0,1,445,310.83c1.12,1.12,2.2,2.34,3.32,3.55l1.64,1.88,0.82,1,0.95,1.17,2.84,3.54,0.72,0.9,0.36,0.45,0.09,0.11,0.48,0.66,0.17,0.23,1.39,1.89c0.94,1.3,1.86,2.5,2.86,3.92l3.12,4.64c1.1,1.59,2,3.13,3,4.72s2,3.19,2.9,4.87A189.76,189.76,0,0,1,489,391.58c0.6,2.3,1.14,4.65,1.66,7,0.26,1.22.49,2.34,0.74,3.66l0.31,1.66,0.33,1.91c0.83,4.93,1.49,9.94,1.93,15.13s0.68,10.49.69,15.92c0,2.72-.07,5.47-0.18,8.25l-0.24,4.19-0.16,2.11L494,452.51l0,0.53-0.1.89-0.42,3.84-0.21,1.94-0.11,1L493,461.8l-0.7,4.57-0.36,2.3c-0.12.77-.28,1.46-0.42,2.2-0.58,2.92-1.13,5.87-1.89,8.81-0.36,1.47-.7,3-1.1,4.44l-1.26,4.44c-0.41,1.5-.88,3-1.37,4.46s-1,3-1.47,4.47c-1.08,3-2.14,6-3.37,8.92-2.4,5.95-5.11,11.9-8.17,17.75s-6.42,11.69-9.86,17.23l-0.64,1L462,543l-0.65,1-1.32,2-2.65,4-2.68,4-0.67,1-0.82,1.1-1.66,2.21c-2.23,2.94-4.48,5.92-6.76,8.86l-7,8.21L436,577.36l-1.88,2-3.8,3.95-3.83,4-4,3.78a267.45,267.45,0,0,1-35.26,28,299.14,299.14,0,0,1-40.61,22.67l-5.42,2.41c-1.82.8-3.66,1.54-5.5,2.31s-3.71,1.47-5.57,2.21l-2.92,1.09-2.94,1c-7.75,2.67-15.5,4.89-23.38,6.83a308.67,308.67,0,0,1-48.44,7.82,297.84,297.84,0,0,1-50.2-.22q-12.65-1.17-25.29-3.51c-2.1-.41-4.2-0.8-6.3-1.23l-6.28-1.41c-2.1-.46-4.17-1.05-6.25-1.57l-3.12-.81-3-.83c-4-1.13-8.15-2.34-12.3-3.69s-8.37-2.88-12.56-4.58a135.15,135.15,0,0,1-35.57-21.12l-0.93-.76-0.58-.5-1.15-1-1.15-1-0.58-.5-0.66-.61c-1.8-1.69-3.68-3.43-5.23-5.08a132.37,132.37,0,0,1-17.19-21.88c-9.85-15.66-16.26-32.88-20.22-50.18A228.68,228.68,0,0,1,39.59,519l-0.34-3.12-0.11-1.06L39.07,514l-0.13-1.53-0.27-3.07c-0.08-1-.19-2-0.24-3.17l-0.33-6.85c-0.06-2.24,0-4.42-.07-6.63a217.78,217.78,0,0,1,1.74-26.23,231.83,231.83,0,0,1,12.56-50.2q4.48-12,10.06-23.45t12.2-22.11q6.55-10.72,14-20.68T104.3,331c5.48-6.11,11.24-11.92,17.2-17.44,1.49-1.39,3-2.76,4.52-4.08s3-2.69,4.61-4l2.34-1.93,1.17-1,0.29-.24c0.5-.41.31-0.24,0.49-0.39l0.58-.44,4.61-3.5c1.56-1.17,3-2.33,4.65-3.49l5-3.47c1.68-1.14,3.35-2.33,5-3.41l5.06-3.12c27-16.54,55.94-27.27,84.06-34.46,3.52-.89,7-1.79,10.52-2.57s7-1.58,10.43-2.33,6.9-1.44,10.3-2.13,6.75-1.36,10.24-2c13.72-2.53,27.2-4.26,40.38-5.4q9.88-.86,19.52-1.25c3.21-.16,6.41-0.21,9.57-0.31l9.36-.17c12.43-.17,24.56,0,36.23.92a293,293,0,0,1,63.79,11.49,279.92,279.92,0,0,1,49.14,20.15,302.93,302.93,0,0,1,33.95,20.83c8.84,6.38,15.44,11.64,19.8,15.33l6.62,5.65-6.88-5.31c-4.53-3.47-11.37-8.38-20.45-14.3a302.87,302.87,0,0,0-34.6-19,277,277,0,0,0-49.15-17.54,287.29,287.29,0,0,0-62.66-8.39c-11.4-.35-23.2,0-35.42.67l-9.26.58c-3.09.23-6.19,0.42-9.31,0.71q-9.37.79-18.94,2c-12.76,1.67-25.78,3.9-38.88,6.9-3.21.73-6.6,1.58-9.94,2.39s-6.69,1.65-10,2.52-6.71,1.74-10.05,2.69-6.7,1.91-10.06,2.91c-26.8,8-53.6,19.33-77.95,35.6l-4.56,3.06c-1.49,1-2.89,2.13-4.34,3.2L157,310.15c-1.46,1.11-3,2.41-4.44,3.61l-4.47,3.68-0.56.46s-0.39.32-.07,0.07l-0.26.23-1,.93L144.08,321c-1.4,1.21-2.72,2.52-4.08,3.79s-2.69,2.57-4,3.9c-5.28,5.28-10.37,10.81-15.19,16.62s-9.4,11.86-13.73,18.12-8.4,12.73-12.15,19.4S87.7,396.31,84.56,403.3s-5.89,14.18-8.31,21.47a207,207,0,0,0-9.61,44.85,191.66,191.66,0,0,0-.75,22.84c0.09,1.89.13,3.82,0.24,5.68l0.43,5.44c0,0.85.21,2,.32,3l0.36,3.06,0.18,1.53,0.09,0.76a0.72,0.72,0,1,1,0,.09l0.05,0.38,0.42,3a201,201,0,0,0,4.45,22.59c3.83,14.61,9.58,28.43,17.6,40.36a101.55,101.55,0,0,0,13.61,16.32c1.28,1.3,2.46,2.28,3.65,3.37,0.16,0.14.27,0.26,0.47,0.42l0.59,0.49,1.18,1,1.18,1,0.59,0.49c-0.43-.36,0,0,0,0l0.27,0.2c2.82,2.17,5.7,4.21,8.68,6.06a106.5,106.5,0,0,0,19,9.31,195.54,195.54,0,0,0,21.38,6.47l2.88,0.72,2.74,0.64c1.83,0.41,3.64.89,5.49,1.24l5.51,1.1L182.8,628q11.07,1.76,22.2,2.55a272.06,272.06,0,0,0,86.83-8.48c6.87-1.81,13.63-3.88,20-6.2l2.35-.87,2.33-.91c1.6-.67,3.22-1.3,4.8-2s3.18-1.36,4.75-2.08l4.7-2.17a268.86,268.86,0,0,0,35.2-20.2,236.21,236.21,0,0,0,30.16-24.36l3.43-3.24,3.23-3.38,3.21-3.36,1.6-1.67,1.49-1.75L415,543l5.19-6.8,1.29-1.68,0.65-.84,0.67-1,2.68-4,2.66-4,1.32-2,0.16-.25c-0.6.93-.08,0.12-0.17,0.26l0.3-.48,0.6-1c3.2-5.12,6-9.93,8.57-14.79s4.8-9.66,6.79-14.45c1-2.39,1.89-4.8,2.79-7.17,0.43-1.19.81-2.39,1.22-3.58s0.81-2.37,1.14-3.56l1.06-3.54c0.33-1.18.61-2.36,0.92-3.54,0.65-2.34,1.11-4.69,1.62-7,0.12-.57.27-1.17,0.36-1.72l0.28-1.63,0.57-3.22c0-.28.1-0.51,0.14-0.82l0.12-1,0.25-1.93,0.5-3.83,0-.24c0,0.11.07-.57,0,0.18l0-.42,0.08-.85,0.17-1.69,0.26-3.35c0.14-2.23.24-4.43,0.3-6.62,0.1-4.37,0-8.66-.22-12.85s-0.65-8.29-1.18-12.22L456,410l-0.25-1.63-0.47-2.84c-0.34-1.91-.71-3.8-1.12-5.66A166.1,166.1,0,0,0,448,378.77a170.58,170.58,0,0,0-8-18.47c-0.68-1.44-1.43-2.83-2.17-4.2s-1.45-2.78-2.18-4l-2.12-3.7c-0.78-1.29-1.7-2.7-2.52-4l-1.25-2-0.16-.25c-0.38-.53.42,0.58,0.31,0.43l-0.08-.12-0.33-.48-0.65-1-2.57-3.74-0.32-.46-0.16-.23L426,336.8l-0.07-.1-0.56-.77-1.12-1.52c-0.78-1-1.51-2-2.3-2.92a117,117,0,0,0-9.5-10.34A169.16,169.16,0,0,0,394,305.76c-11.52-8.26-20.59-13.51-26.7-17.38-3.07-1.89-5.41-3.53-7.42-4.85a24.63,24.63,0,0,1-4.07-3.34c-1.65-1.8-1.35-2.81-.22-3.35C357.89,275.76,363.48,276.54,363.48,276.54Z" transform="translate(-37.84 -232.57)"/><path class="cls-5" d="M273.39,239.95a10,10,0,0,0-2.47.31,10.11,10.11,0,0,0-2.7-1.65,13.43,13.43,0,0,0-11,.33c-20.69-5.07-42.74-3.33-63.68,2.31a8.15,8.15,0,0,0-10.16-4.09A263.17,263.17,0,0,0,100,280.69a234.13,234.13,0,0,0-34.85,32.77c-6.79,8-12.13,16.93-12.25,26.56-6.69,4.27-5.06,17.22,4.93,17.22a9.58,9.58,0,0,0,3.44-.61c3.22,0.83,6.91.14,9-2.36,9.2-10.91,22.57-14.37,35.65-18.56,14.55-4.67,28.38-11,42.11-17.66q34.79-16.93,69.51-34c0.33-.13.66-0.23,1-0.4l25.18-12.43a7.82,7.82,0,0,0,4.67-6.14,15.61,15.61,0,0,0,2.08-.35,20.21,20.21,0,0,0,4.48-2.27l6.61,0.33a8.55,8.55,0,0,0,5.21-1.29c0.51,0,1,0,1.52.07a7.89,7.89,0,0,0,6.85-3.2C285.31,256.64,284.75,239.95,273.39,239.95Z" transform="translate(-37.84 -232.57)"/><path class="cls-6" d="M68.73,299.52l0.21-.26,0.31-.39,0.46-.54,0.93-1.1c0.63-.74,1.26-1.49,1.94-2.23l2.06-2.25,2.19-2.25a118,118,0,0,1,10-8.94c7.33-5.87,16-11.18,25.14-16.32,4.55-2.57,9.29-5.25,14.29-7.86s10.21-5.17,15.68-7.55a211.52,211.52,0,0,1,35.26-12c3.14-.72,6.31-1.4,9.51-2l4.85-.82,2.43-.41c0.81-.12,1.64-0.21,2.46-0.32,3.29-.4,6.56-0.87,10-1.07l5.07-.39c1.68-.1,3.29-0.11,4.94-0.18a195.31,195.31,0,0,1,115.76,33.6A226,226,0,0,0,256,243.11a211.12,211.12,0,0,0-39.1-.82c-1.63.13-3.3,0.21-4.89,0.37l-4.68.55c-3.1.3-6.23,0.86-9.32,1.34-0.77.13-1.55,0.23-2.32,0.37l-2.29.46-4.57.91c-3,.68-6,1.41-9,2.16a217.14,217.14,0,0,0-33.23,11.92c-5.17,2.32-10.13,4.83-14.93,7.34s-9.41,5.16-13.93,7.73c-9,5.1-17,10-23.66,15.29a106,106,0,0,0-9,8l-2,2-1.86,2c-0.62.66-1.19,1.34-1.76,2l-0.84,1-0.42.49-0.05.06,0,0,0.07-.09-0.1.13-0.21.26-2,2.62-1,1.28-0.49.63-0.42.61c-1.11,1.63-2.24,3.12-3.25,4.71s-2,3.13-2.92,4.68-1.76,3-2.55,4.5a133.16,133.16,0,0,0-7.25,16c-0.94,2.34-1.65,4.57-2.38,6.6s-1.3,3.93-1.79,5.69l-0.76,2.5-0.65,2.29-1.12,3.95c-1.32,4.74-2.24,7.38-3.08,8.81s-1.64,1.63-2.44,1.55-1.54-.41-2.08-2-0.86-4.52-.54-9.72c0.1-1.3.2-2.75,0.43-4.34l0.34-2.52,0.48-2.75c0.32-1.93.83-4,1.34-6.27s1.21-4.7,2.09-7.3a116.06,116.06,0,0,1,7.27-17.7c0.84-1.63,1.77-3.28,2.71-5S59.9,312,61,310.23s2.44-3.59,3.72-5.46l0.49-.7,0.49-.64,1-1.28Z" transform="translate(-37.84 -232.57)"/><path class="cls-6" d="M99.68,334.83c2.57-.79,5.3-1.64,8.08-2.55s5.76-1.91,8.79-3c6.05-2.18,12.49-4.81,19.32-7.84s14-6.42,21.63-10l23.7-11.23c8.17-3.89,16.54-8,25-12.34s17-9,25.74-13.91a398.72,398.72,0,0,1,55.75-26l1-.39,0.83,0.33A163.74,163.74,0,0,1,332.3,273a189.56,189.56,0,0,0-44.46-20.38l1.85-.05a528.42,528.42,0,0,0-53.29,29c-8.49,5.25-17.08,10.31-25.57,15s-16.91,9-25.09,13-16.06,7.85-23.65,11.5-14.88,7.09-21.87,10.19-13.72,5.83-20,8.08c-3.15,1.14-6.23,2.16-9.08,3.09s-5.69,1.8-8.3,2.61c-7.92,2.39-14.64,4.42-20.44,6.61-2.91,1.08-5.6,2.16-8.11,3.21l-1.82.76-1.82.79-3.34,1.47c-8.57,3.87-14.41,6.82-18.54,8.72-8.22,3.89-9.72,3.47-10.55,2.2-0.41-.61-0.59-1.33.24-2.64s2.67-3.2,6.43-6A131.17,131.17,0,0,1,63,349c1.09-.56,2.27-1.16,3.43-1.72l1.78-.87,1.93-.9c2.59-1.2,5.4-2.43,8.46-3.65C84.72,339.42,91.88,337.18,99.68,334.83Z" transform="translate(-37.84 -232.57)"/><path class="cls-7" d="M65.58,344a12.74,12.74,0,0,1,1.82-1.62c1.23-1,3-2.51,5.46-4.35,4.78-3.72,11.82-9,20.82-15s19.95-12.91,32.52-19.83a432.15,432.15,0,0,1,42-20.2c15.29-6.34,30.23-11.47,43.95-15.61,6.86-2.08,13.41-3.92,19.55-5.61s11.89-3.2,17.15-4.48c10.53-2.58,19.12-4.36,25.07-5.5,3-.57,5.29-1,6.87-1.23a12.75,12.75,0,0,1,2.42-.29,12.76,12.76,0,0,1-2.35.64l-6.8,1.55c-5.9,1.34-14.44,3.31-24.9,6-20.86,5.64-49.81,13.47-80.28,26.12a456.36,456.36,0,0,0-41.94,20c-12.56,6.81-23.56,13.53-32.6,19.44s-16.19,11-21.1,14.53l-5.65,4.09A12.77,12.77,0,0,1,65.58,344Z" transform="translate(-37.84 -232.57)"/></svg>